<mxfile host="app.diagrams.net" agent="Mozilla/5.0 (X11; Linux x86_64) AppleWebKit/537.36 (KHTML, like Gecko) Chrome/128.0.0.0 Safari/537.36" version="24.8.6">
  <diagram name="HighLevel" id="Hl10GYEGP760fy9UuV83">
    <mxGraphModel dx="1109" dy="603" grid="1" gridSize="10" guides="1" tooltips="1" connect="1" arrows="1" fold="1" page="1" pageScale="1" pageWidth="850" pageHeight="1100" math="0" shadow="0">
      <root>
        <mxCell id="0" />
        <mxCell id="1" parent="0" />
        <mxCell id="W4EhDV7hkxFyFXSWlDcA-7" style="edgeStyle=orthogonalEdgeStyle;curved=1;rounded=0;orthogonalLoop=1;jettySize=auto;html=1;" edge="1" parent="1" source="WBgNYz8Bx8M2YoIPN1Rh-2" target="W4EhDV7hkxFyFXSWlDcA-6">
          <mxGeometry relative="1" as="geometry" />
        </mxCell>
        <mxCell id="W4EhDV7hkxFyFXSWlDcA-8" value="User&lt;div&gt;Feedback&lt;/div&gt;" style="edgeLabel;html=1;align=center;verticalAlign=middle;resizable=0;points=[];" vertex="1" connectable="0" parent="W4EhDV7hkxFyFXSWlDcA-7">
          <mxGeometry x="0.081" relative="1" as="geometry">
            <mxPoint x="-30" as="offset" />
          </mxGeometry>
        </mxCell>
        <mxCell id="WBgNYz8Bx8M2YoIPN1Rh-2" value="UI-UX" style="rounded=0;whiteSpace=wrap;html=1;" parent="1" vertex="1">
          <mxGeometry x="90" y="160" width="100" height="50" as="geometry" />
        </mxCell>
        <mxCell id="W4EhDV7hkxFyFXSWlDcA-2" style="edgeStyle=orthogonalEdgeStyle;curved=1;rounded=0;orthogonalLoop=1;jettySize=auto;html=1;" edge="1" parent="1" source="R96fQVp67dKZFwr1xiyD-2" target="WBgNYz8Bx8M2YoIPN1Rh-2">
          <mxGeometry relative="1" as="geometry">
            <Array as="points">
              <mxPoint x="290" y="170" />
              <mxPoint x="290" y="170" />
            </Array>
          </mxGeometry>
        </mxCell>
        <mxCell id="W4EhDV7hkxFyFXSWlDcA-4" value="New Query ID" style="edgeLabel;html=1;align=center;verticalAlign=middle;resizable=0;points=[];" vertex="1" connectable="0" parent="W4EhDV7hkxFyFXSWlDcA-2">
          <mxGeometry x="-0.367" y="1" relative="1" as="geometry">
            <mxPoint x="-36" y="-11" as="offset" />
          </mxGeometry>
        </mxCell>
        <mxCell id="R96fQVp67dKZFwr1xiyD-2" value="Read&lt;div&gt;Search&lt;/div&gt;&lt;div&gt;Data&lt;/div&gt;" style="shape=ellipse;html=1;dashed=0;whiteSpace=wrap;perimeter=ellipsePerimeter;" parent="1" vertex="1">
          <mxGeometry x="369.76" y="150" width="80" height="80" as="geometry" />
        </mxCell>
        <mxCell id="R96fQVp67dKZFwr1xiyD-3" value="Search Data" style="html=1;dashed=0;whiteSpace=wrap;shape=partialRectangle;right=0;left=0;" parent="1" vertex="1">
          <mxGeometry x="569.76" y="175" width="100" height="30" as="geometry" />
        </mxCell>
        <mxCell id="R96fQVp67dKZFwr1xiyD-4" value="" style="endArrow=classic;html=1;rounded=0;" parent="1" source="R96fQVp67dKZFwr1xiyD-3" target="R96fQVp67dKZFwr1xiyD-2" edge="1">
          <mxGeometry width="50" height="50" relative="1" as="geometry">
            <mxPoint x="549.76" y="280" as="sourcePoint" />
            <mxPoint x="399.76" y="280" as="targetPoint" />
          </mxGeometry>
        </mxCell>
        <mxCell id="R96fQVp67dKZFwr1xiyD-5" value="Search Data" style="edgeLabel;html=1;align=center;verticalAlign=middle;resizable=0;points=[];" parent="R96fQVp67dKZFwr1xiyD-4" vertex="1" connectable="0">
          <mxGeometry x="0.0241" y="1" relative="1" as="geometry">
            <mxPoint x="7" y="-11" as="offset" />
          </mxGeometry>
        </mxCell>
        <mxCell id="R96fQVp67dKZFwr1xiyD-7" value="" style="curved=1;endArrow=classic;html=1;rounded=0;edgeStyle=orthogonalEdgeStyle;strokeColor=default;align=center;verticalAlign=middle;fontFamily=Helvetica;fontSize=11;fontColor=default;labelBackgroundColor=default;" parent="1" source="WBgNYz8Bx8M2YoIPN1Rh-2" target="R96fQVp67dKZFwr1xiyD-2" edge="1">
          <mxGeometry width="50" height="50" relative="1" as="geometry">
            <mxPoint x="190" y="350" as="sourcePoint" />
            <mxPoint x="240" y="300" as="targetPoint" />
            <Array as="points">
              <mxPoint x="280" y="190" />
              <mxPoint x="280" y="190" />
            </Array>
          </mxGeometry>
        </mxCell>
        <mxCell id="R96fQVp67dKZFwr1xiyD-12" value="Partial Query" style="edgeLabel;html=1;align=center;verticalAlign=middle;resizable=0;points=[];" parent="R96fQVp67dKZFwr1xiyD-7" vertex="1" connectable="0">
          <mxGeometry x="-0.3363" y="-1" relative="1" as="geometry">
            <mxPoint x="31" y="-9" as="offset" />
          </mxGeometry>
        </mxCell>
        <mxCell id="R96fQVp67dKZFwr1xiyD-11" value="" style="curved=1;endArrow=classic;html=1;rounded=0;edgeStyle=orthogonalEdgeStyle;strokeColor=default;align=center;verticalAlign=middle;fontFamily=Helvetica;fontSize=11;fontColor=default;labelBackgroundColor=default;" parent="1" source="R96fQVp67dKZFwr1xiyD-2" target="WBgNYz8Bx8M2YoIPN1Rh-2" edge="1">
          <mxGeometry width="50" height="50" relative="1" as="geometry">
            <mxPoint x="200" y="120" as="sourcePoint" />
            <mxPoint x="295" y="120" as="targetPoint" />
            <Array as="points">
              <mxPoint x="240" y="200" />
              <mxPoint x="240" y="200" />
            </Array>
          </mxGeometry>
        </mxCell>
        <mxCell id="R96fQVp67dKZFwr1xiyD-13" value="Autofill&lt;div&gt;Suggestions&lt;/div&gt;" style="edgeLabel;html=1;align=center;verticalAlign=middle;resizable=0;points=[];" parent="R96fQVp67dKZFwr1xiyD-11" vertex="1" connectable="0">
          <mxGeometry x="-0.1644" y="-1" relative="1" as="geometry">
            <mxPoint x="-11" y="21" as="offset" />
          </mxGeometry>
        </mxCell>
        <mxCell id="R96fQVp67dKZFwr1xiyD-14" value="Report&lt;div&gt;Search&lt;/div&gt;&lt;div&gt;Interactions&lt;/div&gt;" style="shape=ellipse;html=1;dashed=0;whiteSpace=wrap;perimeter=ellipsePerimeter;" parent="1" vertex="1">
          <mxGeometry x="369.76" y="260" width="80" height="80" as="geometry" />
        </mxCell>
        <mxCell id="R96fQVp67dKZFwr1xiyD-16" value="" style="curved=1;endArrow=classic;html=1;rounded=0;edgeStyle=orthogonalEdgeStyle;" parent="1" source="WBgNYz8Bx8M2YoIPN1Rh-2" target="R96fQVp67dKZFwr1xiyD-14" edge="1">
          <mxGeometry width="50" height="50" relative="1" as="geometry">
            <mxPoint x="230" y="279.97142857142865" as="sourcePoint" />
            <mxPoint x="321" y="279.97142857142865" as="targetPoint" />
            <Array as="points">
              <mxPoint x="140" y="290" />
            </Array>
          </mxGeometry>
        </mxCell>
        <mxCell id="R96fQVp67dKZFwr1xiyD-17" value="Search Result &amp;amp;&lt;div&gt;Interaction Data&lt;/div&gt;" style="edgeLabel;html=1;align=center;verticalAlign=middle;resizable=0;points=[];" parent="R96fQVp67dKZFwr1xiyD-16" vertex="1" connectable="0">
          <mxGeometry x="-0.175" y="-2" relative="1" as="geometry">
            <mxPoint x="122" y="-22" as="offset" />
          </mxGeometry>
        </mxCell>
        <mxCell id="R96fQVp67dKZFwr1xiyD-19" value="Link Analysis" style="rounded=0;whiteSpace=wrap;html=1;" parent="1" vertex="1">
          <mxGeometry x="90" y="290" width="100" height="50" as="geometry" />
        </mxCell>
        <mxCell id="R96fQVp67dKZFwr1xiyD-23" value="" style="curved=1;endArrow=classic;html=1;rounded=0;edgeStyle=orthogonalEdgeStyle;" parent="1" source="R96fQVp67dKZFwr1xiyD-14" target="R96fQVp67dKZFwr1xiyD-19" edge="1">
          <mxGeometry width="50" height="50" relative="1" as="geometry">
            <mxPoint x="360" y="360" as="sourcePoint" />
            <mxPoint x="270" y="430" as="targetPoint" />
            <Array as="points">
              <mxPoint x="270" y="310" />
              <mxPoint x="270" y="310" />
            </Array>
          </mxGeometry>
        </mxCell>
        <mxCell id="R96fQVp67dKZFwr1xiyD-29" value="Interaction Data" style="edgeLabel;html=1;align=center;verticalAlign=middle;resizable=0;points=[];" parent="R96fQVp67dKZFwr1xiyD-23" vertex="1" connectable="0">
          <mxGeometry x="0.2519" y="-2" relative="1" as="geometry">
            <mxPoint x="22" y="12" as="offset" />
          </mxGeometry>
        </mxCell>
        <mxCell id="R96fQVp67dKZFwr1xiyD-24" value="" style="curved=1;endArrow=classic;html=1;rounded=0;edgeStyle=orthogonalEdgeStyle;" parent="1" source="R96fQVp67dKZFwr1xiyD-14" target="R96fQVp67dKZFwr1xiyD-3" edge="1">
          <mxGeometry width="50" height="50" relative="1" as="geometry">
            <mxPoint x="519.76" y="319.97142857142865" as="sourcePoint" />
            <mxPoint x="610.76" y="319.97142857142865" as="targetPoint" />
            <Array as="points">
              <mxPoint x="440" y="240" />
              <mxPoint x="590" y="240" />
            </Array>
          </mxGeometry>
        </mxCell>
        <mxCell id="R96fQVp67dKZFwr1xiyD-28" value="Result &amp;amp;&lt;div&gt;Interaction Data&lt;/div&gt;" style="edgeLabel;html=1;align=center;verticalAlign=middle;resizable=0;points=[];" parent="R96fQVp67dKZFwr1xiyD-24" vertex="1" connectable="0">
          <mxGeometry x="-0.4207" y="7" relative="1" as="geometry">
            <mxPoint x="51" y="27" as="offset" />
          </mxGeometry>
        </mxCell>
        <mxCell id="R96fQVp67dKZFwr1xiyD-34" value="Any Component" style="rounded=0;whiteSpace=wrap;html=1;" parent="1" vertex="1">
          <mxGeometry x="90" y="400" width="100" height="50" as="geometry" />
        </mxCell>
        <mxCell id="R96fQVp67dKZFwr1xiyD-35" value="Process&lt;div&gt;Raw&lt;/div&gt;&lt;div&gt;Metrics&lt;/div&gt;" style="shape=ellipse;html=1;dashed=0;whiteSpace=wrap;perimeter=ellipsePerimeter;" parent="1" vertex="1">
          <mxGeometry x="369.76" y="370" width="80" height="80" as="geometry" />
        </mxCell>
        <mxCell id="R96fQVp67dKZFwr1xiyD-36" value="" style="curved=1;endArrow=classic;html=1;rounded=0;edgeStyle=orthogonalEdgeStyle;" parent="1" source="R96fQVp67dKZFwr1xiyD-34" target="R96fQVp67dKZFwr1xiyD-35" edge="1">
          <mxGeometry width="50" height="50" relative="1" as="geometry">
            <mxPoint x="205" y="535" as="sourcePoint" />
            <mxPoint x="375" y="430" as="targetPoint" />
            <Array as="points">
              <mxPoint x="240" y="430" />
              <mxPoint x="240" y="430" />
            </Array>
          </mxGeometry>
        </mxCell>
        <mxCell id="R96fQVp67dKZFwr1xiyD-37" value="Raw Metric Data" style="edgeLabel;html=1;align=center;verticalAlign=middle;resizable=0;points=[];" parent="R96fQVp67dKZFwr1xiyD-36" vertex="1" connectable="0">
          <mxGeometry x="-0.4207" y="7" relative="1" as="geometry">
            <mxPoint x="38" y="-3" as="offset" />
          </mxGeometry>
        </mxCell>
        <mxCell id="R96fQVp67dKZFwr1xiyD-38" value="Metric Data" style="html=1;dashed=0;whiteSpace=wrap;shape=partialRectangle;right=0;left=0;" parent="1" vertex="1">
          <mxGeometry x="500" y="290" width="100" height="30" as="geometry" />
        </mxCell>
        <mxCell id="R96fQVp67dKZFwr1xiyD-39" value="" style="curved=1;endArrow=classic;html=1;rounded=0;edgeStyle=orthogonalEdgeStyle;" parent="1" source="R96fQVp67dKZFwr1xiyD-35" target="R96fQVp67dKZFwr1xiyD-38" edge="1">
          <mxGeometry width="50" height="50" relative="1" as="geometry">
            <mxPoint x="200" y="465" as="sourcePoint" />
            <mxPoint x="380" y="465" as="targetPoint" />
            <Array as="points">
              <mxPoint x="520" y="410" />
            </Array>
          </mxGeometry>
        </mxCell>
        <mxCell id="R96fQVp67dKZFwr1xiyD-40" value="Processed&lt;div&gt;Metrics&lt;/div&gt;" style="edgeLabel;html=1;align=center;verticalAlign=middle;resizable=0;points=[];" parent="R96fQVp67dKZFwr1xiyD-39" vertex="1" connectable="0">
          <mxGeometry x="-0.4207" y="7" relative="1" as="geometry">
            <mxPoint x="-16" y="-43" as="offset" />
          </mxGeometry>
        </mxCell>
        <mxCell id="R96fQVp67dKZFwr1xiyD-41" value="Admin" style="rounded=0;whiteSpace=wrap;html=1;" parent="1" vertex="1">
          <mxGeometry x="650" y="420" width="100" height="50" as="geometry" />
        </mxCell>
        <mxCell id="R96fQVp67dKZFwr1xiyD-42" value="Inspect&lt;div&gt;Evaluation&lt;/div&gt;&lt;div&gt;Data&lt;/div&gt;" style="shape=ellipse;html=1;dashed=0;whiteSpace=wrap;perimeter=ellipsePerimeter;" parent="1" vertex="1">
          <mxGeometry x="630" y="280" width="80" height="80" as="geometry" />
        </mxCell>
        <mxCell id="R96fQVp67dKZFwr1xiyD-43" value="" style="curved=1;endArrow=classic;html=1;rounded=0;edgeStyle=orthogonalEdgeStyle;" parent="1" source="R96fQVp67dKZFwr1xiyD-3" target="R96fQVp67dKZFwr1xiyD-42" edge="1">
          <mxGeometry width="50" height="50" relative="1" as="geometry">
            <mxPoint x="710" y="259.97142857142865" as="sourcePoint" />
            <mxPoint x="801" y="259.97142857142865" as="targetPoint" />
            <Array as="points">
              <mxPoint x="640" y="260" />
              <mxPoint x="670" y="260" />
            </Array>
          </mxGeometry>
        </mxCell>
        <mxCell id="R96fQVp67dKZFwr1xiyD-44" value="Search&lt;div&gt;Data&lt;/div&gt;" style="edgeLabel;html=1;align=center;verticalAlign=middle;resizable=0;points=[];" parent="R96fQVp67dKZFwr1xiyD-43" vertex="1" connectable="0">
          <mxGeometry x="0.3151" y="-4" relative="1" as="geometry">
            <mxPoint x="16" y="-34" as="offset" />
          </mxGeometry>
        </mxCell>
        <mxCell id="R96fQVp67dKZFwr1xiyD-45" value="" style="curved=1;endArrow=classic;html=1;rounded=0;edgeStyle=orthogonalEdgeStyle;" parent="1" source="R96fQVp67dKZFwr1xiyD-38" target="R96fQVp67dKZFwr1xiyD-42" edge="1">
          <mxGeometry width="50" height="50" relative="1" as="geometry">
            <mxPoint x="520" y="549.9714285714286" as="sourcePoint" />
            <mxPoint x="611" y="549.9714285714286" as="targetPoint" />
            <Array as="points">
              <mxPoint x="630" y="355" />
              <mxPoint x="630" y="355" />
            </Array>
          </mxGeometry>
        </mxCell>
        <mxCell id="R96fQVp67dKZFwr1xiyD-46" value="Metric Data" style="edgeLabel;html=1;align=center;verticalAlign=middle;resizable=0;points=[];" parent="R96fQVp67dKZFwr1xiyD-45" vertex="1" connectable="0">
          <mxGeometry x="-0.1223" relative="1" as="geometry">
            <mxPoint x="23" y="8" as="offset" />
          </mxGeometry>
        </mxCell>
        <mxCell id="R96fQVp67dKZFwr1xiyD-47" value="" style="curved=1;endArrow=classic;html=1;rounded=0;edgeStyle=orthogonalEdgeStyle;" parent="1" source="R96fQVp67dKZFwr1xiyD-41" target="R96fQVp67dKZFwr1xiyD-42" edge="1">
          <mxGeometry width="50" height="50" relative="1" as="geometry">
            <mxPoint x="600" y="389.97142857142865" as="sourcePoint" />
            <mxPoint x="691" y="389.97142857142865" as="targetPoint" />
            <Array as="points">
              <mxPoint x="670" y="370" />
              <mxPoint x="670" y="370" />
            </Array>
          </mxGeometry>
        </mxCell>
        <mxCell id="R96fQVp67dKZFwr1xiyD-48" value="Data&lt;div&gt;Request&lt;/div&gt;" style="edgeLabel;html=1;align=center;verticalAlign=middle;resizable=0;points=[];" parent="R96fQVp67dKZFwr1xiyD-47" vertex="1" connectable="0">
          <mxGeometry x="-0.5874" y="-1" relative="1" as="geometry">
            <mxPoint x="-31" y="-18" as="offset" />
          </mxGeometry>
        </mxCell>
        <mxCell id="R96fQVp67dKZFwr1xiyD-49" value="" style="curved=1;endArrow=classic;html=1;rounded=0;edgeStyle=orthogonalEdgeStyle;" parent="1" source="R96fQVp67dKZFwr1xiyD-42" target="R96fQVp67dKZFwr1xiyD-41" edge="1">
          <mxGeometry width="50" height="50" relative="1" as="geometry">
            <mxPoint x="660" y="455" as="sourcePoint" />
            <mxPoint x="690" y="385" as="targetPoint" />
            <Array as="points">
              <mxPoint x="690" y="370" />
              <mxPoint x="690" y="370" />
            </Array>
          </mxGeometry>
        </mxCell>
        <mxCell id="R96fQVp67dKZFwr1xiyD-50" value="Search &amp;amp;&amp;nbsp;&lt;div&gt;Metric&lt;div&gt;Data&lt;/div&gt;&lt;/div&gt;" style="edgeLabel;html=1;align=center;verticalAlign=middle;resizable=0;points=[];" parent="R96fQVp67dKZFwr1xiyD-49" vertex="1" connectable="0">
          <mxGeometry x="-0.5874" y="-1" relative="1" as="geometry">
            <mxPoint x="31" y="22" as="offset" />
          </mxGeometry>
        </mxCell>
        <mxCell id="1ZMMbbODiIReQqZofdTx-8" style="edgeStyle=orthogonalEdgeStyle;curved=1;rounded=0;orthogonalLoop=1;jettySize=auto;html=1;" parent="1" source="R96fQVp67dKZFwr1xiyD-2" target="1ZMMbbODiIReQqZofdTx-5" edge="1">
          <mxGeometry relative="1" as="geometry">
            <Array as="points">
              <mxPoint x="400" y="130" />
              <mxPoint x="400" y="130" />
            </Array>
            <mxPoint x="581.0301665379261" y="90" as="sourcePoint" />
          </mxGeometry>
        </mxCell>
        <mxCell id="1ZMMbbODiIReQqZofdTx-9" value="Result &amp;amp;&lt;div&gt;Interactoin Data&lt;/div&gt;" style="edgeLabel;html=1;align=center;verticalAlign=middle;resizable=0;points=[];" parent="1ZMMbbODiIReQqZofdTx-8" vertex="1" connectable="0">
          <mxGeometry x="0.0992" y="7" relative="1" as="geometry">
            <mxPoint x="-43" y="4" as="offset" />
          </mxGeometry>
        </mxCell>
        <mxCell id="1ZMMbbODiIReQqZofdTx-6" style="edgeStyle=orthogonalEdgeStyle;curved=1;rounded=0;orthogonalLoop=1;jettySize=auto;html=1;" parent="1" source="1ZMMbbODiIReQqZofdTx-5" target="R96fQVp67dKZFwr1xiyD-2" edge="1">
          <mxGeometry relative="1" as="geometry">
            <Array as="points">
              <mxPoint x="420" y="130" />
              <mxPoint x="420" y="130" />
            </Array>
            <mxPoint x="581.0301665379257" y="70" as="targetPoint" />
          </mxGeometry>
        </mxCell>
        <mxCell id="1ZMMbbODiIReQqZofdTx-7" value="Query IDs" style="edgeLabel;html=1;align=center;verticalAlign=middle;resizable=0;points=[];" parent="1ZMMbbODiIReQqZofdTx-6" vertex="1" connectable="0">
          <mxGeometry x="-0.0642" y="4" relative="1" as="geometry">
            <mxPoint x="26" y="-2" as="offset" />
          </mxGeometry>
        </mxCell>
        <mxCell id="1ZMMbbODiIReQqZofdTx-5" value="Ranking" style="rounded=0;whiteSpace=wrap;html=1;" parent="1" vertex="1">
          <mxGeometry x="359.76" y="55" width="100" height="50" as="geometry" />
        </mxCell>
        <mxCell id="W4EhDV7hkxFyFXSWlDcA-5" value="User Feedback" style="html=1;dashed=0;whiteSpace=wrap;shape=partialRectangle;right=0;left=0;" vertex="1" parent="1">
          <mxGeometry x="250" y="65" width="100" height="30" as="geometry" />
        </mxCell>
        <mxCell id="W4EhDV7hkxFyFXSWlDcA-9" style="edgeStyle=orthogonalEdgeStyle;curved=1;rounded=0;orthogonalLoop=1;jettySize=auto;html=1;" edge="1" parent="1" source="W4EhDV7hkxFyFXSWlDcA-6" target="W4EhDV7hkxFyFXSWlDcA-5">
          <mxGeometry relative="1" as="geometry" />
        </mxCell>
        <mxCell id="W4EhDV7hkxFyFXSWlDcA-10" value="User&lt;div&gt;Feedback&lt;/div&gt;" style="edgeLabel;html=1;align=center;verticalAlign=middle;resizable=0;points=[];" vertex="1" connectable="0" parent="W4EhDV7hkxFyFXSWlDcA-9">
          <mxGeometry x="-0.4155" y="1" relative="1" as="geometry">
            <mxPoint x="9" y="-14" as="offset" />
          </mxGeometry>
        </mxCell>
        <mxCell id="W4EhDV7hkxFyFXSWlDcA-6" value="Report User Feedback" style="shape=ellipse;html=1;dashed=0;whiteSpace=wrap;perimeter=ellipsePerimeter;" vertex="1" parent="1">
          <mxGeometry x="100" y="40" width="80" height="80" as="geometry" />
        </mxCell>
      </root>
    </mxGraphModel>
  </diagram>
</mxfile>
